G04 Generated by Ultiboard 14.1 *
%FSLAX24Y24*%
%MOIN*%

%ADD10C,0.0001*%
%ADD11C,0.0633*%
%ADD12R,0.0208X0.0208*%
%ADD13C,0.0392*%
%ADD14R,0.0610X0.0236*%
%ADD15C,0.0236*%
%ADD16R,0.0417X0.0108*%
%ADD17C,0.0167*%
%ADD18R,0.0108X0.0417*%
%ADD19R,0.1181X0.0787*%
%ADD20C,0.0394*%
%ADD21R,0.0315X0.0315*%
%ADD22R,0.0394X0.0236*%
%ADD23C,0.0674*%
%ADD24R,0.0320X0.0320*%
%ADD25C,0.0350*%
%ADD26C,0.0591*%
%ADD27R,0.0394X0.1102*%
%ADD28R,0.2185X0.2559*%


G04 ColorRGB FF00CC for the following layer *
%LNSolder Mask Top*%
%LPD*%
G54D10*
G54D11*
X780Y10830D03*
X780Y11830D03*
X5880Y8890D03*
X6880Y8890D03*
X8880Y8890D03*
X7880Y8890D03*
X8780Y11640D03*
X780Y16880D03*
X780Y17880D03*
X4210Y14200D03*
X3210Y14200D03*
X1210Y14200D03*
X2210Y14200D03*
G54D12*
X780Y9830D03*
X4880Y8890D03*
X8780Y10640D03*
X780Y15880D03*
X5210Y14200D03*
G54D13*
X676Y9726D02*
X884Y9726D01*
X884Y9934D01*
X676Y9934D01*
X676Y9726D01*D02*
X4776Y8786D02*
X4984Y8786D01*
X4984Y8994D01*
X4776Y8994D01*
X4776Y8786D01*D02*
X8676Y10536D02*
X8884Y10536D01*
X8884Y10744D01*
X8676Y10744D01*
X8676Y10536D01*D02*
X676Y15776D02*
X884Y15776D01*
X884Y15984D01*
X676Y15984D01*
X676Y15776D01*D02*
X5106Y14096D02*
X5314Y14096D01*
X5314Y14304D01*
X5106Y14304D01*
X5106Y14096D01*D02*
G54D14*
X4137Y10050D03*
X6263Y10050D03*
X4137Y10550D03*
X4137Y11050D03*
X6263Y10550D03*
X6263Y11050D03*
X4137Y11550D03*
X6263Y11550D03*
X6137Y16050D03*
X8263Y16050D03*
X6137Y16550D03*
X6137Y17050D03*
X8263Y16550D03*
X8263Y17050D03*
X6137Y17550D03*
X8263Y17550D03*
G54D15*
X6600Y12700D03*
X4900Y12300D03*
X2700Y9900D03*
X4000Y8700D03*
X5600Y11100D03*
X2400Y19000D03*
X14400Y13900D03*
X4400Y18400D03*
X10000Y19200D03*
X3000Y16700D03*
X5600Y15100D03*
X6600Y15000D03*
X5700Y15700D03*
X3300Y17100D03*
X13200Y14700D03*
X14400Y14700D03*
X13200Y13900D03*
X10300Y15900D03*
X10300Y14200D03*
X10300Y15000D03*
X11000Y14200D03*
X11000Y15000D03*
X11000Y15900D03*
X11700Y14200D03*
X11700Y15000D03*
X11700Y15900D03*
G54D16*
X4200Y17500D03*
X4200Y16900D03*
X3400Y8700D03*
X3400Y9300D03*
X7400Y11100D03*
X7400Y10500D03*
X9200Y18300D03*
X9200Y18900D03*
G54D17*
X3992Y17446D02*
X4408Y17446D01*
X4408Y17554D01*
X3992Y17554D01*
X3992Y17446D01*D02*
X3992Y16846D02*
X4408Y16846D01*
X4408Y16954D01*
X3992Y16954D01*
X3992Y16846D01*D02*
X5246Y18592D02*
X5354Y18592D01*
X5354Y19008D01*
X5246Y19008D01*
X5246Y18592D01*D02*
X5846Y18592D02*
X5954Y18592D01*
X5954Y19008D01*
X5846Y19008D01*
X5846Y18592D01*D02*
X7046Y14792D02*
X7154Y14792D01*
X7154Y15208D01*
X7046Y15208D01*
X7046Y14792D01*D02*
X7646Y14792D02*
X7754Y14792D01*
X7754Y15208D01*
X7646Y15208D01*
X7646Y14792D01*D02*
X2846Y18792D02*
X2954Y18792D01*
X2954Y19208D01*
X2846Y19208D01*
X2846Y18792D01*D02*
X3446Y18792D02*
X3554Y18792D01*
X3554Y19208D01*
X3446Y19208D01*
X3446Y18792D01*D02*
X2046Y15792D02*
X2154Y15792D01*
X2154Y16208D01*
X2046Y16208D01*
X2046Y15792D01*D02*
X2646Y15792D02*
X2754Y15792D01*
X2754Y16208D01*
X2646Y16208D01*
X2646Y15792D01*D02*
X3646Y12392D02*
X3754Y12392D01*
X3754Y12808D01*
X3646Y12808D01*
X3646Y12392D01*D02*
X4246Y12392D02*
X4354Y12392D01*
X4354Y12808D01*
X4246Y12808D01*
X4246Y12392D01*D02*
X3192Y8646D02*
X3608Y8646D01*
X3608Y8754D01*
X3192Y8754D01*
X3192Y8646D01*D02*
X3192Y9246D02*
X3608Y9246D01*
X3608Y9354D01*
X3192Y9354D01*
X3192Y9246D01*D02*
X1846Y12392D02*
X1954Y12392D01*
X1954Y12808D01*
X1846Y12808D01*
X1846Y12392D01*D02*
X2446Y12392D02*
X2554Y12392D01*
X2554Y12808D01*
X2446Y12808D01*
X2446Y12392D01*D02*
X5446Y12392D02*
X5554Y12392D01*
X5554Y12808D01*
X5446Y12808D01*
X5446Y12392D01*D02*
X6046Y12392D02*
X6154Y12392D01*
X6154Y12808D01*
X6046Y12808D01*
X6046Y12392D01*D02*
X3646Y15792D02*
X3754Y15792D01*
X3754Y16208D01*
X3646Y16208D01*
X3646Y15792D01*D02*
X4246Y15792D02*
X4354Y15792D01*
X4354Y16208D01*
X4246Y16208D01*
X4246Y15792D01*D02*
X7192Y11046D02*
X7608Y11046D01*
X7608Y11154D01*
X7192Y11154D01*
X7192Y11046D01*D02*
X7192Y10446D02*
X7608Y10446D01*
X7608Y10554D01*
X7192Y10554D01*
X7192Y10446D01*D02*
X8992Y18246D02*
X9408Y18246D01*
X9408Y18354D01*
X8992Y18354D01*
X8992Y18246D01*D02*
X8992Y18846D02*
X9408Y18846D01*
X9408Y18954D01*
X8992Y18954D01*
X8992Y18846D01*D02*
G54D18*
X5300Y18800D03*
X5900Y18800D03*
X7100Y15000D03*
X7700Y15000D03*
X2900Y19000D03*
X3500Y19000D03*
X2100Y16000D03*
X2700Y16000D03*
X3700Y12600D03*
X4300Y12600D03*
X1900Y12600D03*
X2500Y12600D03*
X5500Y12600D03*
X6100Y12600D03*
X3700Y16000D03*
X4300Y16000D03*
G54D19*
X13800Y14300D03*
X13800Y16072D03*
G54D20*
X13210Y13907D02*
X14390Y13907D01*
X14390Y14693D01*
X13210Y14693D01*
X13210Y13907D01*D02*
X13210Y15679D02*
X14390Y15679D01*
X14390Y16465D01*
X13210Y16465D01*
X13210Y15679D01*D02*
G54D21*
X7100Y19000D03*
X7710Y19000D03*
G54D22*
X2653Y17026D03*
X1747Y17400D03*
X2653Y17774D03*
X1947Y10800D03*
X2853Y10426D03*
X2853Y11174D03*
G54D23*
X13650Y18850D03*
G54D24*
X13650Y17850D03*
G54D25*
X13490Y17690D02*
X13810Y17690D01*
X13810Y18010D01*
X13490Y18010D01*
X13490Y17690D01*D02*
G54D26*
X10500Y18000D03*
X10500Y17400D03*
G54D27*
X10098Y17634D03*
X11902Y17634D03*
G54D28*
X11000Y15094D03*

M02*
