M48
INCH,TZ
VER,1
FMAT,2
DETECT,ON
ATC,ON
T1C0.0350
T2C0.0392
T3C0.0118
T4C0.0394
T5C0.0315
%
T1
X780Y10830
Y11830
X5880Y8890
X6880
X8880
X7880
X8780Y11640
X780Y16880
Y17880
X4210Y14200
X3210
X1210
X2210
T2
X780Y9830
X4880Y8890
X8780Y10640
X780Y15880
X5210Y14200
T3
X6600Y12700
X4900Y12300
X2700Y9900
X4000Y8700
X5600Y11100
X2400Y19000
X14400Y13900
X4400Y18400
X10000Y19200
X3000Y16700
X5600Y15100
X6600Y15000
X5700Y15700
X3300Y17100
X13200Y14700
X14400
X13200Y13900
X10300Y15900
Y14200
Y15000
X11000Y14200
Y15000
Y15900
X11700Y14200
Y15000
Y15900
T4
X13650Y18850
Y17850
T5
X10500Y18000
Y17400
M30
