G04 Generated by Ultiboard 14.1 *
%FSLAX24Y24*%
%MOIN*%

%ADD10C,0.0001*%
%ADD11C,0.0080*%


G04 ColorRGB FF14FF for the following layer *
%LNSilkscreen Bottom*%
%LPD*%
G54D10*
G54D11*
X9547Y16871D02*
X9547Y17443D01*
X9320Y17443D01*
X9206Y17329D01*
X9206Y17271D01*
X9320Y17157D01*
X9547Y17157D01*
X9490Y17157D02*
X9206Y16871D01*
X8694Y16986D02*
X8808Y16871D01*
X8921Y16871D01*
X9035Y16986D01*
X9035Y17329D01*
X8921Y17443D01*
X8808Y17443D01*
X8694Y17329D01*
X8011Y16986D02*
X7897Y16871D01*
X7784Y16871D01*
X7670Y16986D01*
X8011Y17329D01*
X7897Y17443D01*
X7784Y17443D01*
X7670Y17329D01*
X7499Y17271D02*
X7442Y16871D01*
X7328Y17043D01*
X7215Y16871D01*
X7158Y17271D01*
X6816Y16871D02*
X6816Y17214D01*
X6816Y17329D02*
X6816Y17386D01*
X6191Y16929D02*
X6248Y16871D01*
X6304Y16929D01*
X6304Y17443D01*
X6418Y17271D02*
X6191Y17271D01*
X5679Y16929D02*
X5736Y16871D01*
X5849Y16871D01*
X5963Y16986D01*
X5963Y17157D01*
X5849Y17271D01*
X5736Y17271D01*
X5679Y17214D01*
X5451Y17157D02*
X5337Y17271D01*
X5224Y17271D01*
X5110Y17157D01*
X5110Y16871D01*
X5451Y17443D02*
X5451Y16871D01*
X8267Y16643D02*
X8096Y16071D01*
X7926Y16643D01*
X7698Y16529D02*
X7584Y16643D01*
X7584Y16071D01*
X7755Y16071D02*
X7414Y16071D01*
X7072Y16071D02*
X7072Y16129D01*
X6731Y16529D02*
X6617Y16643D01*
X6504Y16643D01*
X6390Y16529D01*
X6390Y16186D01*
X6504Y16071D01*
X6617Y16071D01*
X6731Y16186D01*
X6731Y16529D01*
X6390Y16529D02*
X6731Y16186D01*
X8143Y10371D02*
X8143Y10943D01*
X7916Y10943D01*
X7802Y10829D01*
X7802Y10771D01*
X7916Y10657D01*
X8143Y10657D01*
X8086Y10657D02*
X7802Y10371D01*
X7631Y10771D02*
X7631Y10486D01*
X7517Y10371D01*
X7404Y10371D01*
X7290Y10486D01*
X7290Y10771D01*
X7290Y10486D02*
X7290Y10371D01*
X7119Y10371D02*
X7119Y10714D01*
X7119Y10771D01*
X7119Y10714D02*
X7062Y10771D01*
X6948Y10771D01*
X6892Y10714D01*
X6892Y10371D01*
X6266Y10486D02*
X6380Y10371D01*
X6493Y10371D01*
X6607Y10486D01*
X6607Y10829D01*
X6493Y10943D01*
X6380Y10943D01*
X6266Y10829D01*
X6038Y10771D02*
X5868Y10771D01*
X5811Y10714D01*
X5811Y10429D01*
X5868Y10371D01*
X6038Y10371D01*
X6095Y10429D01*
X6095Y10543D01*
X6038Y10600D01*
X5811Y10600D01*
X5811Y10429D02*
X5754Y10371D01*
X5583Y10371D02*
X5583Y10714D01*
X5583Y10771D01*
X5583Y10714D02*
X5526Y10771D01*
X5469Y10771D01*
X5412Y10714D01*
X5356Y10771D01*
X5299Y10771D01*
X5242Y10714D01*
X5242Y10371D01*
X5412Y10714D02*
X5412Y10371D01*
X4559Y10371D02*
X4559Y10943D01*
X4332Y10943D01*
X4218Y10829D01*
X4218Y10771D01*
X4332Y10657D01*
X4559Y10657D01*
X4502Y10657D02*
X4218Y10371D01*
X3706Y10486D02*
X3820Y10371D01*
X3933Y10371D01*
X4047Y10486D01*
X4047Y10657D01*
X3933Y10771D01*
X3820Y10771D01*
X3706Y10657D01*
X3763Y10600D01*
X4047Y10600D01*
X3535Y10371D02*
X3535Y10714D01*
X3535Y10771D01*
X3535Y10714D02*
X3478Y10771D01*
X3421Y10771D01*
X3364Y10714D01*
X3308Y10771D01*
X3251Y10771D01*
X3194Y10714D01*
X3194Y10371D01*
X3364Y10714D02*
X3364Y10371D01*
X3023Y10486D02*
X2909Y10371D01*
X2796Y10371D01*
X2682Y10486D01*
X2682Y10657D01*
X2796Y10771D01*
X2909Y10771D01*
X3023Y10657D01*
X3023Y10486D01*
X2227Y10429D02*
X2284Y10371D01*
X2340Y10429D01*
X2340Y10943D01*
X2454Y10771D02*
X2227Y10771D01*
X1658Y10486D02*
X1772Y10371D01*
X1885Y10371D01*
X1999Y10486D01*
X1999Y10657D01*
X1885Y10771D01*
X1772Y10771D01*
X1658Y10657D01*
X1715Y10600D01*
X1999Y10600D01*
X5839Y10143D02*
X5668Y9571D01*
X5498Y10143D01*
X5270Y10029D02*
X5156Y10143D01*
X5156Y9571D01*
X5327Y9571D02*
X4986Y9571D01*
X4644Y9571D02*
X4644Y9629D01*
X4303Y10029D02*
X4189Y10143D01*
X4076Y10143D01*
X3962Y10029D01*
X3962Y9686D01*
X4076Y9571D01*
X4189Y9571D01*
X4303Y9686D01*
X4303Y10029D01*
X3962Y10029D02*
X4303Y9686D01*
X3293Y19114D02*
X3208Y19029D01*
X3123Y19029D01*
X3037Y19114D01*
X3037Y19371D01*
X3123Y19457D01*
X3208Y19457D01*
X3293Y19371D01*
X3293Y19114D01*
X3123Y19114D02*
X3037Y19029D01*
X2653Y19029D02*
X2909Y19029D01*
X2909Y19243D01*
X2909Y19457D01*
X2653Y19457D01*
X2909Y19243D02*
X2739Y19243D01*
X2525Y19114D02*
X2440Y19029D01*
X2355Y19029D01*
X2269Y19114D01*
X2525Y19371D01*
X2440Y19457D01*
X2355Y19457D01*
X2269Y19371D01*
X1757Y19371D02*
X1672Y19457D01*
X1587Y19457D01*
X1501Y19371D01*
X1501Y19329D01*
X1757Y19029D01*
X1501Y19029D01*
X1501Y19071D01*
X1373Y19371D02*
X1288Y19457D01*
X1203Y19457D01*
X1117Y19371D01*
X1117Y19114D01*
X1203Y19029D01*
X1288Y19029D01*
X1373Y19114D01*
X1373Y19371D01*
X1117Y19371D02*
X1373Y19114D01*
X989Y19371D02*
X904Y19457D01*
X819Y19457D01*
X733Y19371D01*
X733Y19329D01*
X989Y19029D01*
X733Y19029D01*
X733Y19071D01*
X605Y19371D02*
X520Y19457D01*
X435Y19457D01*
X349Y19371D01*
X349Y19114D01*
X435Y19029D01*
X520Y19029D01*
X605Y19114D01*
X605Y19371D01*
X349Y19371D02*
X605Y19114D01*
X3182Y12639D02*
X3097Y12553D01*
X3012Y12553D01*
X2926Y12639D01*
X2926Y12896D01*
X3012Y12982D01*
X3097Y12982D01*
X3182Y12896D01*
X3182Y12639D01*
X3012Y12639D02*
X2926Y12553D01*
X2542Y12553D02*
X2798Y12553D01*
X2798Y12767D01*
X2798Y12982D01*
X2542Y12982D01*
X2798Y12767D02*
X2628Y12767D01*
X2414Y12639D02*
X2329Y12553D01*
X2244Y12553D01*
X2158Y12639D01*
X2414Y12896D01*
X2329Y12982D01*
X2244Y12982D01*
X2158Y12896D01*
X1646Y12896D02*
X1561Y12982D01*
X1476Y12982D01*
X1390Y12896D01*
X1390Y12853D01*
X1646Y12553D01*
X1390Y12553D01*
X1390Y12596D01*
X1262Y12896D02*
X1177Y12982D01*
X1092Y12982D01*
X1006Y12896D01*
X1006Y12639D01*
X1092Y12553D01*
X1177Y12553D01*
X1262Y12639D01*
X1262Y12896D01*
X1006Y12896D02*
X1262Y12639D01*
X878Y12896D02*
X793Y12982D01*
X708Y12982D01*
X622Y12896D01*
X622Y12853D01*
X878Y12553D01*
X622Y12553D01*
X622Y12596D01*
X494Y12896D02*
X409Y12982D01*
X324Y12982D01*
X238Y12896D01*
X238Y12639D01*
X324Y12553D01*
X409Y12553D01*
X494Y12639D01*
X494Y12896D01*
X238Y12896D02*
X494Y12639D01*

M02*
